<svg version="1.1" id="Layer_1" xmlns="http://www.w3.org/2000/svg" xmlns:xlink="http://www.w3.org/1999/xlink" x="0px" y="0px"
	 width="100%" viewBox="0 0 312 73" enable-background="new 0 0 312 73" xml:space="preserve">
<path fill="#FDFDFD" opacity="1.000000" stroke="none" 
	d="
M212.000000,74.000000 
	C141.333359,74.000000 71.166710,74.000000 1.000047,74.000000 
	C1.000031,49.666695 1.000031,25.333389 1.000016,1.000063 
	C104.999939,1.000042 208.999878,1.000042 312.999878,1.000021 
	C312.999908,25.333267 312.999908,49.666534 312.999939,73.999901 
	C279.500000,74.000000 246.000000,74.000000 212.000000,74.000000 
M240.139984,44.846859 
	C236.910858,40.899155 233.552765,41.057842 230.009460,43.665493 
	C229.000946,38.459320 228.910934,32.706398 221.820969,30.345318 
	C216.479111,25.529448 210.741333,23.854349 204.206696,28.047285 
	C203.738693,28.347582 202.972656,28.486824 202.445419,28.340307 
	C199.770340,27.596926 197.128357,26.734449 193.656143,25.660498 
	C193.656143,29.930733 193.656143,32.880791 193.005051,35.790169 
	C191.049438,34.495396 189.093811,33.200623 186.611816,31.477350 
	C176.059875,22.725313 165.277161,23.744678 157.475937,34.002193 
	C155.609573,32.703194 153.743210,31.404194 151.340240,29.669401 
	C147.947235,26.163435 143.674484,25.482807 138.954529,24.942013 
	C138.954529,20.411407 138.954529,15.880801 138.954529,11.248341 
	C136.633316,11.248341 135.175964,11.248341 133.141022,10.694218 
	C131.722763,5.344646 127.756538,9.597513 124.934578,7.939631 
	C124.786125,11.012768 124.667961,13.458799 123.998955,15.869723 
	C123.638680,15.939156 123.278397,16.008589 122.387733,15.710740 
	C121.032982,15.095235 119.678223,14.479730 117.964600,13.232146 
	C110.383537,8.773699 102.809509,7.532177 94.556099,13.030812 
	C92.767342,12.350886 90.978592,11.670960 89.016441,10.224524 
	C83.481941,6.191360 78.740448,6.816435 72.747238,11.902424 
	C71.740196,11.513894 70.733162,11.125364 69.394325,9.985697 
	C61.438396,5.023617 54.163536,8.088577 52.564381,17.179586 
	C52.169231,19.425949 52.559372,21.831406 52.013653,24.020414 
	C51.782707,24.946777 50.067234,25.503050 48.936787,25.502020 
	C46.665829,22.972761 44.394871,20.443504 41.556133,17.554602 
	C33.605160,9.501584 23.643192,7.248054 14.980963,11.542940 
	C6.209710,15.891882 1.428700,25.540133 3.204098,35.724895 
	C4.777327,44.749889 10.331454,50.407063 18.974630,54.117611 
	C28.380068,59.230434 39.606533,57.371506 45.632359,48.741356 
	C48.625854,44.454094 49.908817,38.972492 52.115505,34.953545 
	C52.115505,40.858601 52.115505,46.763660 52.115505,52.753803 
	C53.984512,52.925663 55.440163,53.059509 56.901920,54.023251 
	C59.634193,54.876961 62.366467,55.730667 65.993759,56.864029 
	C65.993759,49.056202 65.993759,42.807022 65.993759,36.233593 
	C68.190666,36.233593 69.826660,36.233593 71.661476,37.119358 
	C71.661476,42.298058 71.661476,47.476753 71.661476,52.813396 
	C73.410698,52.926041 74.678749,53.007702 76.217331,53.840824 
	C79.077820,54.822037 81.938316,55.803253 85.915672,57.167580 
	C85.915672,49.326714 85.915672,43.168842 85.915672,37.169212 
	C88.213684,36.690701 89.799911,36.360397 91.558891,35.994125 
	C91.558891,33.772629 91.558891,31.727007 91.558891,29.485409 
	C89.802246,29.332603 88.348495,29.206148 86.697289,28.471127 
	C86.535225,27.862476 86.373169,27.253826 86.077736,25.820885 
	C85.553207,19.065868 85.875458,18.682993 91.664726,20.000051 
	C90.709267,25.907734 93.570335,29.865524 98.338524,32.722248 
	C101.172379,34.420071 104.257469,35.714825 107.008095,37.527016 
	C108.054291,38.216278 109.231300,40.019634 109.004219,41.005566 
	C108.702148,42.317097 107.252777,43.997963 105.996178,44.309479 
	C104.048851,44.792217 101.730331,44.640423 99.783646,44.050262 
	C97.199257,43.266781 94.821136,41.802879 92.208511,40.562054 
	C90.716324,43.122036 89.321426,45.515095 87.633820,48.410336 
	C90.912743,50.167580 93.913177,51.775581 97.106903,54.055328 
	C107.180962,59.333992 114.657341,58.256626 124.684624,50.925488 
	C126.103584,51.652729 127.522552,52.379974 129.178574,53.873684 
	C131.714310,58.253284 135.309143,55.181805 138.857544,55.740005 
	C138.857544,50.953197 138.960968,46.701801 138.824677,42.458111 
	C138.716461,39.088612 139.753372,36.674019 143.818420,36.433903 
	C143.818420,41.881073 143.818420,47.328247 143.818420,52.809586 
	C145.937927,52.962570 147.418198,53.069420 148.956879,53.999115 
	C151.695267,54.879620 154.433655,55.760120 157.263077,56.669895 
	C158.008362,52.596699 158.523514,49.781181 159.504562,47.448227 
	C162.589157,49.505142 165.673752,51.562057 168.960358,54.284267 
	C177.152893,58.615860 185.216431,57.477329 191.099701,51.213306 
	C191.838776,50.426414 192.796570,49.844940 193.709229,50.081722 
	C193.709229,55.327518 193.709229,60.573315 193.709229,66.055412 
	C195.253571,66.250031 196.507019,66.407997 198.002747,67.249947 
	C200.360931,72.046272 204.144577,69.093948 207.991867,69.502884 
	C207.991867,63.851818 207.991867,58.718544 208.648224,53.713943 
	C209.063889,53.874397 209.479538,54.034847 210.068283,54.902210 
	C216.750015,58.309837 221.717392,57.395821 226.669205,51.624172 
	C227.785049,50.323578 228.473862,48.928635 230.523453,51.458599 
	C232.318756,52.375622 234.114059,53.292645 235.997894,54.917267 
	C238.321304,55.255100 240.988174,56.431606 242.859360,55.665249 
	C244.354736,55.052803 245.996948,51.756775 245.559509,50.228462 
	C244.998642,48.268970 242.419067,46.887295 240.139984,44.846859 
M258.952820,55.037910 
	C264.013458,58.303997 268.787994,56.950134 273.883392,54.390694 
	C272.349976,51.648502 272.419250,47.852642 267.355621,48.540310 
	C266.379608,43.828762 262.406097,47.034691 260.134613,44.984295 
	C259.862488,37.094330 262.953766,34.871017 271.258575,37.834118 
	C270.573303,45.877106 274.768494,50.598553 282.054962,54.035339 
	C289.247253,58.237724 296.951050,57.848392 302.927032,52.980511 
	C310.117676,47.123215 309.134979,35.939392 300.564819,31.504791 
	C291.232910,23.608576 282.830505,23.485991 273.498962,30.818419 
	C271.855743,30.134390 270.212555,29.450363 268.216644,28.057550 
	C260.535767,22.837677 250.281876,26.815620 246.867157,33.547310 
	C243.078644,41.015888 246.464752,49.231354 255.103455,52.972778 
	C256.317413,53.498543 257.602783,53.859512 258.952820,55.037910 
z"/>
<path fill="#070707" opacity="1.000000" stroke="none" 
	d="
M18.799677,53.428402 
	C10.331454,50.407063 4.777327,44.749889 3.204098,35.724895 
	C1.428700,25.540133 6.209710,15.891882 14.980963,11.542940 
	C23.643192,7.248054 33.605160,9.501584 41.788136,18.103695 
	C48.414997,30.764015 46.151188,43.225891 36.332394,50.092377 
	C30.979662,53.835651 24.968800,54.024979 18.799677,53.428402 
M31.061634,20.888332 
	C24.500450,17.033270 18.063429,18.377039 14.851530,24.272291 
	C11.168389,31.032480 13.131871,39.455776 19.814529,43.214653 
	C26.064085,45.319859 30.506233,44.177116 33.338589,39.735577 
	C36.943184,34.083076 36.105217,26.321247 31.061634,20.888332 
z"/>
<path fill="#030303" opacity="1.000000" stroke="none" 
	d="
M75.946793,53.089359 
	C74.678749,53.007702 73.410698,52.926041 71.661476,52.813396 
	C71.661476,47.476753 71.661476,42.298058 71.684593,36.277443 
	C71.082054,34.682274 70.509842,33.341682 69.821342,33.279037 
	C67.070778,33.028751 64.284058,33.175766 60.930470,33.175766 
	C60.930470,40.040936 60.930470,46.404411 60.930470,52.727024 
	C59.189774,52.928219 58.042793,53.060791 56.895813,53.193359 
	C55.440163,53.059509 53.984512,52.925663 52.115505,52.753803 
	C52.115505,46.763660 52.115505,40.858601 51.963654,34.117348 
	C46.032272,32.845524 48.671810,29.085415 49.026508,26.227535 
	C50.067234,25.503050 51.782707,24.946777 52.013653,24.020414 
	C52.559372,21.831406 52.169231,19.425949 52.564381,17.179586 
	C54.163536,8.088577 61.438396,5.023617 69.292175,10.616781 
	C68.457893,12.497934 67.725754,13.748004 66.800201,15.065528 
	C66.355515,15.262450 66.163918,15.452189 65.606300,15.711544 
	C60.784069,16.595306 60.168667,18.311516 61.524773,26.377733 
	C63.055752,26.377733 64.643333,26.377733 66.458633,26.505009 
	C66.833565,26.724892 66.980774,26.817497 67.089310,27.229939 
	C67.219765,27.904217 67.388885,28.258656 67.558006,28.613094 
	C67.664848,28.045712 67.771698,27.478331 68.243942,26.756634 
	C74.589134,26.142202 70.618134,21.670818 71.736618,18.817860 
	C72.340439,16.394638 72.803261,14.347772 73.266083,12.300905 
	C78.740448,6.816435 83.481941,6.191360 88.817474,10.843947 
	C87.253387,13.468307 86.923996,16.635462 83.090034,15.806741 
	C82.507652,15.680858 80.910789,17.679110 80.721115,18.847181 
	C80.340607,21.190435 80.608047,23.638906 80.608047,26.645176 
	C82.712524,26.645176 84.461815,26.645176 86.211105,26.645176 
	C86.373169,27.253826 86.535225,27.862476 86.680923,29.168840 
	C87.354805,35.080471 82.724380,32.168217 80.370071,34.076736 
	C80.370071,39.944256 80.370071,46.289608 80.370071,52.733509 
	C78.521133,52.882256 77.233963,52.985806 75.946793,53.089359 
z"/>
<path fill="#060606" opacity="1.000000" stroke="none" 
	d="
M96.913620,53.383579 
	C93.913177,51.775581 90.912743,50.167580 87.633820,48.410336 
	C89.321426,45.515095 90.716324,43.122036 92.208511,40.562054 
	C94.821136,41.802879 97.199257,43.266781 99.783646,44.050262 
	C101.730331,44.640423 104.048851,44.792217 105.996178,44.309479 
	C107.252777,43.997963 108.702148,42.317097 109.004219,41.005566 
	C109.231300,40.019634 108.054291,38.216278 107.008095,37.527016 
	C104.257469,35.714825 101.172379,34.420071 98.338524,32.722248 
	C93.570335,29.865524 90.709267,25.907734 91.900223,19.295609 
	C93.174057,16.821375 94.212402,15.051582 95.250755,13.281791 
	C102.809509,7.532177 110.383537,8.773699 117.927307,13.835294 
	C116.909843,16.573427 115.929665,18.708414 114.643967,20.827888 
	C113.757759,20.621464 113.177094,20.430553 112.330658,19.999310 
	C110.503922,19.216635 108.848907,18.055933 107.403824,18.275696 
	C105.190506,18.612286 102.034111,19.339687 101.227409,20.905527 
	C99.735107,23.802114 102.499001,25.144854 105.330376,26.096470 
	C107.939117,27.547989 110.352631,28.661161 112.620544,30.017738 
	C117.671959,33.039280 120.181740,37.339531 119.159096,43.411526 
	C118.414406,47.833157 114.245865,52.275944 108.873650,53.099957 
	C104.964447,53.699558 100.905693,53.324238 96.913620,53.383579 
z"/>
<path fill="#030303" opacity="1.000000" stroke="none" 
	d="
M209.895203,54.195301 
	C209.479538,54.034847 209.063889,53.874397 208.091827,53.406921 
	C205.973755,52.461964 204.412079,51.824032 202.388428,50.997395 
	C202.388428,54.031662 202.388428,56.460789 202.388428,58.889912 
	C202.388428,61.275192 202.388428,63.660473 202.388428,66.018166 
	C200.330643,66.261742 199.045563,66.413849 197.760483,66.565964 
	C196.507019,66.407997 195.253571,66.250031 193.709229,66.055412 
	C193.709229,60.573315 193.709229,55.327518 193.821472,49.167042 
	C193.841202,44.111858 193.748672,39.971352 193.656143,35.830849 
	C193.656143,32.880791 193.656143,29.930733 193.656143,25.660498 
	C197.128357,26.734449 199.770340,27.596926 202.445419,28.340307 
	C202.972656,28.486824 203.738693,28.347582 204.206696,28.047285 
	C210.741333,23.854349 216.479111,25.529448 222.055054,30.964157 
	C227.600525,43.299217 222.996765,51.698612 209.895203,54.195301 
M208.826904,45.973282 
	C215.140350,44.495422 216.737503,40.763134 213.048462,34.967655 
	C210.504501,32.658115 207.427902,32.291084 205.063858,34.487949 
	C203.522003,35.920769 202.051849,39.054924 202.619354,40.722610 
	C203.329926,42.810760 206.162201,44.176907 208.826904,45.973282 
z"/>
<path fill="#090909" opacity="1.000000" stroke="none" 
	d="
M139.075333,25.850412 
	C143.674484,25.482807 147.947235,26.163435 151.655151,30.298538 
	C152.454742,38.073177 152.939423,45.218678 153.439575,52.592091 
	C151.404419,52.853897 150.151459,53.015079 148.898483,53.176262 
	C147.418198,53.069420 145.937927,52.962570 143.818420,52.809586 
	C143.818420,47.328247 143.818420,41.881073 143.460831,35.735531 
	C141.083725,34.409901 138.668213,32.806332 137.152496,33.421131 
	C135.532486,34.078232 133.982635,36.744755 133.775650,38.680984 
	C133.288651,43.236408 133.619598,47.879276 133.619598,52.718990 
	C131.813873,52.868843 130.377686,52.988029 128.941513,53.107216 
	C127.522552,52.379974 126.103584,51.652729 124.744217,50.053520 
	C124.719147,38.089314 124.634468,26.997072 124.549789,15.904831 
	C124.667961,13.458799 124.786125,11.012768 124.934578,7.939631 
	C127.756538,9.597513 131.722763,5.344646 133.380219,11.421125 
	C133.619400,17.361481 133.619400,22.574928 133.619400,28.415655 
	C135.905624,27.340731 137.490479,26.595570 139.075333,25.850412 
z"/>
<path fill="#070707" opacity="1.000000" stroke="none" 
	d="
M281.831024,53.368538 
	C274.768494,50.598553 270.573303,45.877106 271.503357,37.204914 
	C272.534912,34.756744 273.321747,32.937775 274.108582,31.118811 
	C282.830505,23.485991 291.232910,23.608576 300.804688,32.110470 
	C305.398651,43.291084 300.889099,51.646103 289.655212,53.445164 
	C287.116364,53.851749 284.442657,53.416359 281.831024,53.368538 
M291.749573,35.350246 
	C289.359680,32.959518 286.349030,32.211437 283.822296,34.317799 
	C282.212067,35.660137 280.592468,38.666847 281.045105,40.381252 
	C281.602631,42.492687 284.310944,44.036228 286.852478,45.965565 
	C293.053040,44.932339 294.750092,41.628983 291.749573,35.350246 
z"/>
<path fill="#070707" opacity="1.000000" stroke="none" 
	d="
M168.758347,53.618973 
	C165.673752,51.562057 162.589157,49.505142 159.254822,46.828339 
	C158.726379,42.194386 158.447708,38.180313 158.169022,34.166245 
	C165.277161,23.744678 176.059875,22.725313 186.825592,32.081257 
	C191.488632,43.826149 186.011353,52.824493 174.151001,53.760155 
	C172.368256,53.900795 170.556625,53.675171 168.758347,53.618973 
M172.867538,45.934368 
	C179.045029,44.959152 180.754929,41.631557 177.750824,35.349663 
	C175.358749,32.956139 172.344849,32.210094 169.817612,34.318863 
	C168.207169,35.662640 166.590347,38.674828 167.045578,40.389595 
	C167.601868,42.484955 170.324799,44.005112 172.867538,45.934368 
z"/>
<path fill="#CDCDCD" opacity="1.000000" stroke="none" 
	d="
M124.274368,15.887278 
	C124.634468,26.997072 124.719147,38.089314 124.675446,49.641342 
	C114.657341,58.256626 107.180962,59.333992 97.010262,53.719452 
	C100.905693,53.324238 104.964447,53.699558 108.873650,53.099957 
	C114.245865,52.275944 118.414406,47.833157 119.159096,43.411526 
	C120.181740,37.339531 117.671959,33.039280 112.620544,30.017738 
	C110.352631,28.661161 107.939117,27.547989 105.384109,25.735563 
	C105.917236,20.891241 109.708237,21.248007 112.596420,20.239645 
	C113.177094,20.430553 113.757759,20.621464 114.817719,21.139116 
	C118.133530,23.728802 120.045631,23.057072 121.231728,19.683733 
	C121.669670,18.438164 122.348923,17.277439 122.918121,16.078022 
	C123.278397,16.008589 123.638680,15.939156 124.274368,15.887278 
z"/>
<path fill="#080808" opacity="1.000000" stroke="none" 
	d="
M260.114227,45.798786 
	C262.406097,47.034691 266.379608,43.828762 267.687439,49.209969 
	C267.065308,50.903675 266.292847,52.364567 265.116455,52.853287 
	C263.166077,53.663578 260.955872,53.848427 258.855103,54.296761 
	C257.602783,53.859512 256.317413,53.498543 255.103455,52.972778 
	C246.464752,49.231354 243.078644,41.015888 246.867157,33.547310 
	C250.281876,26.815620 260.535767,22.837677 268.159668,28.720905 
	C267.330872,30.809250 266.559082,32.234238 265.828247,33.583595 
	C259.464569,32.484158 255.898758,33.816502 255.132019,37.868988 
	C254.384720,41.818756 255.286789,45.149979 260.114227,45.798786 
z"/>
<path fill="#9F9F9F" opacity="1.000000" stroke="none" 
	d="
M48.981647,25.864777 
	C48.671810,29.085415 46.032272,32.845524 51.888706,33.656170 
	C49.908817,38.972492 48.625854,44.454094 45.632359,48.741356 
	C39.606533,57.371506 28.380068,59.230434 18.887154,53.773006 
	C24.968800,54.024979 30.979662,53.835651 36.332394,50.092377 
	C46.151188,43.225891 48.414997,30.764015 42.072025,18.283516 
	C44.394871,20.443504 46.665829,22.972761 48.981647,25.864777 
z"/>
<path fill="#9E9E9E" opacity="1.000000" stroke="none" 
	d="
M76.082062,53.465092 
	C77.233963,52.985806 78.521133,52.882256 80.370071,52.733509 
	C80.370071,46.289608 80.370071,39.944256 80.370071,34.076736 
	C82.724380,32.168217 87.354805,35.080471 86.779663,29.473122 
	C88.348495,29.206148 89.802246,29.332603 91.558891,29.485409 
	C91.558891,31.727007 91.558891,33.772629 91.558891,35.994125 
	C89.799911,36.360397 88.213684,36.690701 85.915672,37.169212 
	C85.915672,43.168842 85.915672,49.326714 85.915672,57.167580 
	C81.938316,55.803253 79.077820,54.822037 76.082062,53.465092 
z"/>
<path fill="#9E9E9E" opacity="1.000000" stroke="none" 
	d="
M168.859344,53.951622 
	C170.556625,53.675171 172.368256,53.900795 174.151001,53.760155 
	C186.011353,52.824493 191.488632,43.826149 187.088791,32.295506 
	C189.093811,33.200623 191.049438,34.495396 193.330597,35.810509 
	C193.748672,39.971352 193.841202,44.111858 193.793365,48.710327 
	C192.796570,49.844940 191.838776,50.426414 191.099701,51.213306 
	C185.216431,57.477329 177.152893,58.615860 168.859344,53.951622 
z"/>
<path fill="#9F9F9F" opacity="1.000000" stroke="none" 
	d="
M209.981750,54.548756 
	C222.996765,51.698612 227.600525,43.299217 222.321167,31.193241 
	C228.910934,32.706398 229.000946,38.459320 230.032135,44.498253 
	C230.062088,47.200520 230.069351,49.070026 230.076614,50.939533 
	C228.473862,48.928635 227.785049,50.323578 226.669205,51.624172 
	C221.717392,57.395821 216.750015,58.309837 209.981750,54.548756 
z"/>
<path fill="#A0A0A0" opacity="1.000000" stroke="none" 
	d="
M281.942993,53.701939 
	C284.442657,53.416359 287.116364,53.851749 289.655212,53.445164 
	C300.889099,51.646103 305.398651,43.291084 301.061646,32.330593 
	C309.134979,35.939392 310.117676,47.123215 302.927032,52.980511 
	C296.951050,57.848392 289.247253,58.237724 281.942993,53.701939 
z"/>
<path fill="#9F9F9F" opacity="1.000000" stroke="none" 
	d="
M56.898865,53.608307 
	C58.042793,53.060791 59.189774,52.928219 60.930470,52.727024 
	C60.930470,46.404411 60.930470,40.040936 60.930470,33.175766 
	C64.284058,33.175766 67.070778,33.028751 69.821342,33.279037 
	C70.509842,33.341682 71.082054,34.682274 71.585182,35.834557 
	C69.826660,36.233593 68.190666,36.233593 65.993759,36.233593 
	C65.993759,42.807022 65.993759,49.056202 65.993759,56.864029 
	C62.366467,55.730667 59.634193,54.876961 56.898865,53.608307 
z"/>
<path fill="#A5A5A5" opacity="1.000000" stroke="none" 
	d="
M129.060043,53.490448 
	C130.377686,52.988029 131.813873,52.868843 133.619598,52.718990 
	C133.619598,47.879276 133.288651,43.236408 133.775650,38.680984 
	C133.982635,36.744755 135.532486,34.078232 137.152496,33.421131 
	C138.668213,32.806332 141.083725,34.409901 143.173813,35.409885 
	C139.753372,36.674019 138.716461,39.088612 138.824677,42.458111 
	C138.960968,46.701801 138.857544,50.953197 138.857544,55.740005 
	C135.309143,55.181805 131.714310,58.253284 129.060043,53.490448 
z"/>
<path fill="#9E9E9E" opacity="1.000000" stroke="none" 
	d="
M157.822479,34.084221 
	C158.447708,38.180313 158.726379,42.194386 159.021881,46.587059 
	C158.523514,49.781181 158.008362,52.596699 157.263077,56.669895 
	C154.433655,55.760120 151.695267,54.879620 148.927673,53.587688 
	C150.151459,53.015079 151.404419,52.853897 153.439575,52.592091 
	C152.939423,45.218678 152.454742,38.073177 151.923447,30.516434 
	C153.743210,31.404194 155.609573,32.703194 157.822479,34.084221 
z"/>
<path fill="#9A9A9A" opacity="1.000000" stroke="none" 
	d="
M197.881622,66.907959 
	C199.045563,66.413849 200.330643,66.261742 202.388428,66.018166 
	C202.388428,63.660473 202.388428,61.275192 202.388428,58.889912 
	C202.388428,56.460789 202.388428,54.031662 202.388428,50.997395 
	C204.412079,51.824032 205.973755,52.461964 207.763641,53.342583 
	C207.991867,58.718544 207.991867,63.851818 207.991867,69.502884 
	C204.144577,69.093948 200.360931,72.046272 197.881622,66.907959 
z"/>
<path fill="#9A9A9A" opacity="1.000000" stroke="none" 
	d="
M94.903427,13.156301 
	C94.212402,15.051582 93.174057,16.821375 91.917847,18.866026 
	C85.875458,18.682993 85.553207,19.065868 86.144424,26.233030 
	C84.461815,26.645176 82.712524,26.645176 80.608047,26.645176 
	C80.608047,23.638906 80.340607,21.190435 80.721115,18.847181 
	C80.910789,17.679110 82.507652,15.680858 83.090034,15.806741 
	C86.923996,16.635462 87.253387,13.468307 88.904175,11.227203 
	C90.978592,11.670960 92.767342,12.350886 94.903427,13.156301 
z"/>
<path fill="#9E9E9E" opacity="1.000000" stroke="none" 
	d="
M260.124420,45.391541 
	C255.286789,45.149979 254.384720,41.818756 255.132019,37.868988 
	C255.898758,33.816502 259.464569,32.484158 265.828247,33.583595 
	C266.559082,32.234238 267.330872,30.809250 268.335999,29.075298 
	C270.212555,29.450363 271.855743,30.134390 273.803772,30.968613 
	C273.321747,32.937775 272.534912,34.756744 271.494415,36.786133 
	C262.953766,34.871017 259.862488,37.094330 260.124420,45.391541 
z"/>
<path fill="#090909" opacity="1.000000" stroke="none" 
	d="
M230.300034,51.199066 
	C230.069351,49.070026 230.062088,47.200520 230.072693,44.931122 
	C233.552765,41.057842 236.910858,40.899155 240.419662,45.435661 
	C241.745789,50.299606 239.069458,52.396187 235.909363,54.209663 
	C234.114059,53.292645 232.318756,52.375622 230.300034,51.199066 
z"/>
<path fill="#9A9A9A" opacity="1.000000" stroke="none" 
	d="
M73.006660,12.101665 
	C72.803261,14.347772 72.340439,16.394638 71.339294,18.777760 
	C65.879341,19.054974 65.481354,19.687551 66.230919,26.377733 
	C64.643333,26.377733 63.055752,26.377733 61.524773,26.377733 
	C60.168667,18.311516 60.784069,16.595306 65.854233,15.771292 
	C66.683113,15.547154 66.838364,15.272614 66.993614,14.998073 
	C67.725754,13.748004 68.457893,12.497934 69.458069,10.992350 
	C70.733162,11.125364 71.740196,11.513894 73.006660,12.101665 
z"/>
<path fill="#A7A7A7" opacity="1.000000" stroke="none" 
	d="
M139.014923,25.396212 
	C137.490479,26.595570 135.905624,27.340731 133.619400,28.415655 
	C133.619400,22.574928 133.619400,17.361481 133.669006,11.698187 
	C135.175964,11.248341 136.633316,11.248341 138.954529,11.248341 
	C138.954529,15.880801 138.954529,20.411407 139.014923,25.396212 
z"/>
<path fill="#A2A2A2" opacity="1.000000" stroke="none" 
	d="
M258.903961,54.667336 
	C260.955872,53.848427 263.166077,53.663578 265.116455,52.853287 
	C266.292847,52.364567 267.065308,50.903675 267.967438,49.473614 
	C272.419250,47.852642 272.349976,51.648502 273.883392,54.390694 
	C268.787994,56.950134 264.013458,58.303997 258.903961,54.667336 
z"/>
<path fill="#A7A7A7" opacity="1.000000" stroke="none" 
	d="
M235.953629,54.563465 
	C239.069458,52.396187 241.745789,50.299606 240.704315,45.640564 
	C242.419067,46.887295 244.998642,48.268970 245.559509,50.228462 
	C245.996948,51.756775 244.354736,55.052803 242.859360,55.665249 
	C240.988174,56.431606 238.321304,55.255100 235.953629,54.563465 
z"/>
<path fill="#A2A2A2" opacity="1.000000" stroke="none" 
	d="
M122.652924,15.894381 
	C122.348923,17.277439 121.669670,18.438164 121.231728,19.683733 
	C120.045631,23.057072 118.133530,23.728802 115.123253,21.154629 
	C115.929665,18.708414 116.909843,16.573427 118.106743,14.151333 
	C119.678223,14.479730 121.032982,15.095235 122.652924,15.894381 
z"/>
<path fill="#F9F9F9" opacity="1.000000" stroke="none" 
	d="
M31.377001,21.565880 
	C36.105217,26.321247 36.943184,34.083076 33.338589,39.735577 
	C30.506233,44.177116 26.064085,45.319859 19.523796,42.564182 
	C16.005449,28.403122 19.254517,22.959131 31.377001,21.565880 
z"/>
<path fill="#9E9E9E" opacity="1.000000" stroke="none" 
	d="
M31.219318,21.227106 
	C19.254517,22.959131 16.005449,28.403122 19.193413,42.321247 
	C13.131871,39.455776 11.168389,31.032480 14.851530,24.272291 
	C18.063429,18.377039 24.500450,17.033270 31.219318,21.227106 
z"/>
<path fill="#FDFDFD" opacity="1.000000" stroke="none" 
	d="
M66.458633,26.505009 
	C65.481354,19.687551 65.879341,19.054974 71.198288,19.154116 
	C70.618134,21.670818 74.589134,26.142202 68.056412,26.660583 
	C67.503479,26.718845 67.127975,26.910101 67.127975,26.910101 
	C66.980774,26.817497 66.833565,26.724892 66.458633,26.505009 
z"/>
<path fill="#9A9A9A" opacity="1.000000" stroke="none" 
	d="
M67.089310,27.229939 
	C67.127975,26.910101 67.503479,26.718845 67.691010,26.814896 
	C67.771698,27.478331 67.664848,28.045712 67.558006,28.613094 
	C67.388885,28.258656 67.219765,27.904217 67.089310,27.229939 
z"/>
<path fill="#080808" opacity="1.000000" stroke="none" 
	d="
M66.800201,15.065527 
	C66.838364,15.272614 66.683113,15.547154 66.279938,15.761948 
	C66.163918,15.452189 66.355515,15.262450 66.800201,15.065527 
z"/>
<path fill="#9A9A9A" opacity="1.000000" stroke="none" 
	d="
M112.330658,19.999310 
	C109.708237,21.248007 105.917236,20.891241 105.122818,25.507662 
	C102.499001,25.144854 99.735107,23.802114 101.227409,20.905527 
	C102.034111,19.339687 105.190506,18.612286 107.403824,18.275696 
	C108.848907,18.055933 110.503922,19.216635 112.330658,19.999310 
z"/>
<path fill="#999999" opacity="1.000000" stroke="none" 
	d="
M208.078644,45.854706 
	C206.162201,44.176907 203.329926,42.810760 202.619354,40.722610 
	C202.051849,39.054924 203.522003,35.920769 205.063858,34.487949 
	C207.427902,32.291084 210.504501,32.658115 212.844971,35.531052 
	C208.154312,37.961197 206.010910,40.923618 208.078644,45.854706 
z"/>
<path fill="#F3F3F3" opacity="1.000000" stroke="none" 
	d="
M208.452774,45.913994 
	C206.010910,40.923618 208.154312,37.961197 212.941971,35.874622 
	C216.737503,40.763134 215.140350,44.495422 208.452774,45.913994 
z"/>
<path fill="#9C9C9C" opacity="1.000000" stroke="none" 
	d="
M286.089722,45.825203 
	C284.310944,44.036228 281.602631,42.492687 281.045105,40.381252 
	C280.592468,38.666847 282.212067,35.660137 283.822296,34.317799 
	C286.349030,32.211437 289.359680,32.959518 291.504395,35.763031 
	C285.579498,38.398678 284.559174,40.303223 286.089722,45.825203 
z"/>
<path fill="#F3F3F3" opacity="1.000000" stroke="none" 
	d="
M286.471100,45.895386 
	C284.559174,40.303223 285.579498,38.398678 291.608093,36.102737 
	C294.750092,41.628983 293.053040,44.932339 286.471100,45.895386 
z"/>
<path fill="#9C9C9C" opacity="1.000000" stroke="none" 
	d="
M172.110779,45.774010 
	C170.324799,44.005112 167.601868,42.484955 167.045578,40.389595 
	C166.590347,38.674828 168.207169,35.662640 169.817612,34.318863 
	C172.344849,32.210094 175.358749,32.956139 177.503754,35.776016 
	C171.912262,37.441830 171.293762,41.222034 172.110779,45.774010 
z"/>
<path fill="#F3F3F3" opacity="1.000000" stroke="none" 
	d="
M172.489166,45.854187 
	C171.293762,41.222034 171.912262,37.441830 177.606918,36.115990 
	C180.754929,41.631557 179.045029,44.959152 172.489166,45.854187 
z"/>
</svg>