<svg width="142" height="35" viewBox="0 0 142 35" fill="none" xmlns="http://www.w3.org/2000/svg">
<path d="M21.12 29.96L0.84 30V26.16L10.4 18.08C14.36 14.72 15.68 12.8 15.68 10C15.68 6.68 13.88 4.8 10.8 4.8C7.6 4.8 5.6 7.04 5.56 10.8H0.48C0.52 4.4 4.6 0.239999 10.8 0.239999C17.04 0.239999 20.92 3.8 20.92 9.72C20.92 13.8 18.68 16.88 14.24 20.68L8.96 25.2H21.12V29.96ZM32.1416 28.24C32.1416 31.56 29.7416 34.2 26.5016 34.6V32.64C28.3016 32.32 29.6616 31.24 29.6616 29.84C29.3416 30 28.9816 30.08 28.5016 30.08C26.9416 30.08 25.6616 28.92 25.6616 27.32C25.6616 25.4 26.9016 24.12 28.7016 24.12C30.7016 24.12 32.1416 25.76 32.1416 28.24ZM35.0169 15.44C35.0169 6.36 39.8969 0.199997 47.3769 0.199997C54.8569 0.199997 59.7769 6.36 59.7769 15.44C59.7769 24.48 55.1369 30.52 47.3769 30.52C39.6169 30.52 35.0169 24.48 35.0169 15.44ZM40.0569 15.44C40.0569 22.2 42.7769 26 47.3769 26C52.0169 26 54.7369 22.2 54.7369 15.44C54.7369 8.52 52.0169 4.72 47.3769 4.72C42.7769 4.72 40.0569 8.52 40.0569 15.44ZM63.22 15.44C63.22 6.36 68.1 0.199997 75.58 0.199997C83.06 0.199997 87.98 6.36 87.98 15.44C87.98 24.48 83.34 30.52 75.58 30.52C67.82 30.52 63.22 24.48 63.22 15.44ZM68.26 15.44C68.26 22.2 70.98 26 75.58 26C80.22 26 82.94 22.2 82.94 15.44C82.94 8.52 80.22 4.72 75.58 4.72C70.98 4.72 68.26 8.52 68.26 15.44ZM91.4231 15.44C91.4231 6.36 96.3031 0.199997 103.783 0.199997C111.263 0.199997 116.183 6.36 116.183 15.44C116.183 24.48 111.543 30.52 103.783 30.52C96.0231 30.52 91.4231 24.48 91.4231 15.44ZM96.4631 15.44C96.4631 22.2 99.1831 26 103.783 26C108.423 26 111.143 22.2 111.143 15.44C111.143 8.52 108.423 4.72 103.783 4.72C99.1831 4.72 96.4631 8.52 96.4631 15.44ZM121.106 14.48H129.066V6.52H133.146V14.48H141.106V18.56H133.146V26.56H129.066V18.56H121.106V14.48Z" fill="black"/>
</svg>
