<svg width="103" height="31" viewBox="0 0 103 31" fill="none" xmlns="http://www.w3.org/2000/svg">
<path d="M21.12 29.96L0.84 30V26.16L10.4 18.08C14.36 14.72 15.68 12.8 15.68 10C15.68 6.68 13.88 4.8 10.8 4.8C7.6 4.8 5.6 7.04 5.56 10.8H0.48C0.52 4.4 4.6 0.239999 10.8 0.239999C17.04 0.239999 20.92 3.8 20.92 9.72C20.92 13.8 18.68 16.88 14.24 20.68L8.96 25.2H21.12V29.96ZM24.2747 15.44C24.2747 6.36 29.1547 0.199997 36.6347 0.199997C44.1147 0.199997 49.0347 6.36 49.0347 15.44C49.0347 24.48 44.3947 30.52 36.6347 30.52C28.8747 30.52 24.2747 24.48 24.2747 15.44ZM29.3147 15.44C29.3147 22.2 32.0347 26 36.6347 26C41.2747 26 43.9947 22.2 43.9947 15.44C43.9947 8.52 41.2747 4.72 36.6347 4.72C32.0347 4.72 29.3147 8.52 29.3147 15.44ZM52.4778 15.44C52.4778 6.36 57.3578 0.199997 64.8378 0.199997C72.3178 0.199997 77.2378 6.36 77.2378 15.44C77.2378 24.48 72.5978 30.52 64.8378 30.52C57.0778 30.52 52.4778 24.48 52.4778 15.44ZM57.5178 15.44C57.5178 22.2 60.2378 26 64.8378 26C69.4778 26 72.1978 22.2 72.1978 15.44C72.1978 8.52 69.4778 4.72 64.8378 4.72C60.2378 4.72 57.5178 8.52 57.5178 15.44ZM82.1609 14.48H90.1209V6.52H94.2009V14.48H102.161V18.56H94.2009V26.56H90.1209V18.56H82.1609V14.48Z" fill="black"/>
</svg>
