<svg width="168" height="35" viewBox="0 0 168 35" fill="none" xmlns="http://www.w3.org/2000/svg">
<path d="M10.36 15.52H6.8V12.2L14.32 5.28H2.16V0.76H20.72V4.84L13.6 11.4C18.08 12.28 21.56 15.56 21.56 20.72C21.56 26.72 16.88 30.52 10.96 30.52C5.24 30.52 0.8 27 0.8 20.68H5.84C5.84 24.04 7.92 25.96 11.04 25.96C14.24 25.96 16.36 23.88 16.36 20.64C16.36 17.68 14.44 15.52 10.36 15.52ZM24.4934 15.44C24.4934 6.36 29.3734 0.199997 36.8534 0.199997C44.3334 0.199997 49.2534 6.36 49.2534 15.44C49.2534 24.48 44.6134 30.52 36.8534 30.52C29.0934 30.52 24.4934 24.48 24.4934 15.44ZM29.5334 15.44C29.5334 22.2 32.2534 26 36.8534 26C41.4934 26 44.2134 22.2 44.2134 15.44C44.2134 8.52 41.4934 4.72 36.8534 4.72C32.2534 4.72 29.5334 8.52 29.5334 15.44ZM58.5713 28.24C58.5713 31.56 56.1713 34.2 52.9313 34.6V32.64C54.7313 32.32 56.0913 31.24 56.0913 29.84C55.7713 30 55.4112 30.08 54.9313 30.08C53.3713 30.08 52.0913 28.92 52.0913 27.32C52.0913 25.4 53.3313 24.12 55.1313 24.12C57.1313 24.12 58.5713 25.76 58.5713 28.24ZM61.4466 15.44C61.4466 6.36 66.3266 0.199997 73.8066 0.199997C81.2866 0.199997 86.2066 6.36 86.2066 15.44C86.2066 24.48 81.5666 30.52 73.8066 30.52C66.0466 30.52 61.4466 24.48 61.4466 15.44ZM66.4866 15.44C66.4866 22.2 69.2066 26 73.8066 26C78.4466 26 81.1666 22.2 81.1666 15.44C81.1666 8.52 78.4466 4.72 73.8066 4.72C69.2066 4.72 66.4866 8.52 66.4866 15.44ZM89.6497 15.44C89.6497 6.36 94.5297 0.199997 102.01 0.199997C109.49 0.199997 114.41 6.36 114.41 15.44C114.41 24.48 109.77 30.52 102.01 30.52C94.2497 30.52 89.6497 24.48 89.6497 15.44ZM94.6897 15.44C94.6897 22.2 97.4097 26 102.01 26C106.65 26 109.37 22.2 109.37 15.44C109.37 8.52 106.65 4.72 102.01 4.72C97.4097 4.72 94.6897 8.52 94.6897 15.44ZM117.853 15.44C117.853 6.36 122.733 0.199997 130.213 0.199997C137.693 0.199997 142.613 6.36 142.613 15.44C142.613 24.48 137.973 30.52 130.213 30.52C122.453 30.52 117.853 24.48 117.853 15.44ZM122.893 15.44C122.893 22.2 125.613 26 130.213 26C134.853 26 137.573 22.2 137.573 15.44C137.573 8.52 134.853 4.72 130.213 4.72C125.613 4.72 122.893 8.52 122.893 15.44ZM147.536 14.48H155.496V6.52H159.576V14.48H167.536V18.56H159.576V26.56H155.496V18.56H147.536V14.48Z" fill="black"/>
</svg>
