<svg width="242" height="61" viewBox="0 0 242 61" fill="none" xmlns="http://www.w3.org/2000/svg">
<path d="M37.4285 12.4533C39.5885 13.5467 40.8952 15.12 40.8952 17.68C40.8952 21.28 38.3619 24 31.3485 24H17.8552V1.6H31.7219C38.4952 1.6 40.3085 4.58667 40.3085 7.54667C40.3085 10.08 39.0019 11.1733 37.4285 12.0267V12.4533ZM30.9485 7.25333H25.2419V10.6133H30.9485C32.6819 10.6133 33.2419 9.76 33.2419 8.96C33.2419 8.10667 32.6819 7.25333 30.9485 7.25333ZM31.1085 18.3467C32.8419 18.3467 33.4285 17.28 33.4285 16.4533C33.4285 15.6 32.8419 14.64 31.1085 14.64H25.2419V18.3467H31.1085ZM65.7602 24H58.5069L55.4669 18.2133H49.8669V24H42.4802V1.6H55.3069C61.5202 1.6 65.0135 4.26667 65.0135 10.16C65.0135 13.1733 63.6535 15.3067 61.7602 16.64L65.7602 24ZM49.8669 7.73333V12.6933H54.8002C56.6669 12.6933 57.6269 11.7867 57.6269 10.2133C57.6269 8.64 56.6669 7.73333 54.8002 7.73333H49.8669ZM78.8673 24.7467C71.1606 24.7467 66.174 19.9733 66.174 12.8C66.174 5.62667 71.1606 0.853333 78.8673 0.853333C86.574 0.853333 91.5606 5.62667 91.5606 12.8C91.5606 19.9733 86.574 24.7467 78.8673 24.7467ZM78.8673 18.3733C81.8006 18.3733 84.2273 16.3467 84.2273 12.8C84.2273 9.25333 81.8006 7.22667 78.8673 7.22667C75.934 7.22667 73.5073 9.25333 73.5073 12.8C73.5073 16.3467 75.934 18.3733 78.8673 18.3733ZM95.6456 24L91.299 1.6H98.7923L101.192 16.1067H101.832L105.032 1.6H110.899L114.099 16.1067H114.739L117.139 1.6H124.632L120.286 24H110.312L108.286 13.2267H107.646L105.619 24H95.6456ZM135.959 24.7467C128.226 24.72 124.573 22.32 124.759 16.5067H131.399C131.479 18.0267 132.759 18.96 135.959 18.9867C138.786 19.0133 140.093 18.2133 140.093 17.1733C140.093 16.4533 139.693 15.7067 137.506 15.3867L134.626 14.9333C130.386 14.24 125.293 13.7333 125.293 8C125.293 3.57333 128.893 0.853333 136.013 0.853333C142.439 0.853333 146.919 2.64 146.786 9.04H140.199C139.933 7.54667 138.679 6.61333 135.853 6.61333C133.399 6.61333 132.386 7.36 132.386 8.37333C132.386 9.01333 132.786 9.78667 134.493 10.0533L136.866 10.4533C141.319 11.2 147.426 11.3333 147.426 17.4667C147.426 22.3467 143.639 24.7733 135.959 24.7467ZM148.824 24V1.6H169.011V7.52H156.211V10.3733H168.531V15.2267H156.211V18.08H169.011V24H148.824ZM197.397 12.4533C199.557 13.5467 200.864 15.12 200.864 17.68C200.864 21.28 198.331 24 191.317 24H177.824V1.6H191.691C198.464 1.6 200.277 4.58667 200.277 7.54667C200.277 10.08 198.971 11.1733 197.397 12.0267V12.4533ZM190.917 7.25333H185.211V10.6133H190.917C192.651 10.6133 193.211 9.76 193.211 8.96C193.211 8.10667 192.651 7.25333 190.917 7.25333ZM191.077 18.3467C192.811 18.3467 193.397 17.28 193.397 16.4533C193.397 15.6 192.811 14.64 191.077 14.64H185.211V18.3467H191.077ZM225.347 1.6L216.174 17.04V24H208.787V17.0133L199.641 1.6H207.401L212.201 10.0267H212.787L217.587 1.6H225.347ZM11.796 37.6C20.916 37.6 24.116 42.3467 24.116 48.8C24.116 55.2267 20.916 60 11.796 60H0.542708V37.6H11.796ZM11.796 53.8133C14.676 53.8133 16.7027 52.3733 16.7027 48.8C16.7027 45.2 14.676 43.7867 11.796 43.7867H7.95604V53.8133H11.796ZM49.0102 60H41.7569L38.7169 54.2133H33.1169V60H25.7302V37.6H38.5569C44.7702 37.6 48.2635 40.2667 48.2635 46.16C48.2635 49.1733 46.9035 51.3067 45.0102 52.64L49.0102 60ZM33.1169 43.7333V48.6933H38.0502C39.9169 48.6933 40.8769 47.7867 40.8769 46.2133C40.8769 44.64 39.9169 43.7333 38.0502 43.7333H33.1169ZM50.4802 60V37.6H70.6669V43.52H57.8669V46.3733H70.1869V51.2267H57.8669V54.08H70.6669V60H50.4802ZM83.2094 60.7467C75.476 60.72 71.8227 58.32 72.0094 52.5067H78.6494C78.7294 54.0267 80.0094 54.96 83.2094 54.9867C86.036 55.0133 87.3427 54.2133 87.3427 53.1733C87.3427 52.4533 86.9427 51.7067 84.756 51.3867L81.876 50.9333C77.636 50.24 72.5427 49.7333 72.5427 44C72.5427 39.5733 76.1427 36.8533 83.2627 36.8533C89.6894 36.8533 94.1694 38.64 94.036 45.04H87.4494C87.1827 43.5467 85.9294 42.6133 83.1027 42.6133C80.6494 42.6133 79.636 43.36 79.636 44.3733C79.636 45.0133 80.036 45.7867 81.7427 46.0533L84.116 46.4533C88.5694 47.2 94.676 47.3333 94.676 53.4667C94.676 58.3467 90.8894 60.7733 83.2094 60.7467ZM107.022 60.7467C99.2885 60.72 95.6352 58.32 95.8219 52.5067H102.462C102.542 54.0267 103.822 54.96 107.022 54.9867C109.849 55.0133 111.155 54.2133 111.155 53.1733C111.155 52.4533 110.755 51.7067 108.569 51.3867L105.689 50.9333C101.449 50.24 96.3552 49.7333 96.3552 44C96.3552 39.5733 99.9552 36.8533 107.075 36.8533C113.502 36.8533 117.982 38.64 117.849 45.04H111.262C110.995 43.5467 109.742 42.6133 106.915 42.6133C104.462 42.6133 103.449 43.36 103.449 44.3733C103.449 45.0133 103.849 45.7867 105.555 46.0533L107.929 46.4533C112.382 47.2 118.489 47.3333 118.489 53.4667C118.489 58.3467 114.702 60.7733 107.022 60.7467ZM137.491 60.7467C129.757 60.72 126.104 58.32 126.291 52.5067H132.931C133.011 54.0267 134.291 54.96 137.491 54.9867C140.317 55.0133 141.624 54.2133 141.624 53.1733C141.624 52.4533 141.224 51.7067 139.037 51.3867L136.157 50.9333C131.917 50.24 126.824 49.7333 126.824 44C126.824 39.5733 130.424 36.8533 137.544 36.8533C143.971 36.8533 148.451 38.64 148.317 45.04H141.731C141.464 43.5467 140.211 42.6133 137.384 42.6133C134.931 42.6133 133.917 43.36 133.917 44.3733C133.917 45.0133 134.317 45.7867 136.024 46.0533L138.397 46.4533C142.851 47.2 148.957 47.3333 148.957 53.4667C148.957 58.3467 145.171 60.7733 137.491 60.7467ZM172.903 37.6V43.76H164.849V60H157.463V43.76H149.409V37.6H172.903ZM199.129 37.6L189.955 53.04V60H182.569V53.0133L173.422 37.6H181.182L185.982 46.0267H186.569L191.369 37.6H199.129ZM200.074 60V37.6H207.461V53.84H219.407V60H200.074ZM221.261 60V37.6H241.448V43.52H228.648V46.3733H240.968V51.2267H228.648V54.08H241.448V60H221.261Z" fill="black"/>
</svg>
