<svg width="552" height="177" viewBox="0 0 552 177" fill="none" xmlns="http://www.w3.org/2000/svg">
<path d="M1.86667 47V2.2H42.1333V14.52H16.64V20.6H41.0133V31.2667H16.64V47H1.86667ZM45.8667 47V2.2H60.64V47H45.8667ZM64.3667 47V2.2H81.3267L96.2067 26.4133H97.54V2.2H111.94V47H95.3533L80.1 22.7867H78.7667V47H64.3667ZM138.186 2.2C156.426 2.2 162.826 11.6933 162.826 24.6C162.826 37.4533 156.426 47 138.186 47H115.679V2.2H138.186ZM138.186 34.6267C143.946 34.6267 147.999 31.7467 147.999 24.6C147.999 17.4 143.946 14.5733 138.186 14.5733H130.506V34.6267H138.186ZM204.302 48.4933C189.209 48.4933 179.129 38.9467 179.129 24.6C179.129 10.2533 189.209 0.706665 204.302 0.706665C215.236 0.706665 226.436 5.50666 227.929 20.6533H213.849C212.623 15.7467 209.156 13.4533 204.302 13.4533C198.436 13.4533 193.796 17.8267 193.796 24.6C193.796 31.3733 198.436 35.7467 204.302 35.7467C209.156 35.7467 212.623 33.4533 213.849 28.44H227.929C226.436 43.6933 215.343 48.4933 204.302 48.4933ZM230.867 47V2.2H245.64V34.68H269.533V47H230.867ZM295.953 48.4933C280.54 48.4933 270.567 38.9467 270.567 24.6C270.567 10.2533 280.54 0.706665 295.953 0.706665C311.367 0.706665 321.34 10.2533 321.34 24.6C321.34 38.9467 311.367 48.4933 295.953 48.4933ZM295.953 35.7467C301.82 35.7467 306.673 31.6933 306.673 24.6C306.673 17.5067 301.82 13.4533 295.953 13.4533C290.087 13.4533 285.233 17.5067 285.233 24.6C285.233 31.6933 290.087 35.7467 295.953 35.7467ZM368.649 2.2V14.52H352.542V47H337.769V14.52H321.663V2.2H368.649ZM404.277 2.2H419.05V47H404.277V30.7867H386.89V47H372.117V2.2H386.89V18.4133H404.277V2.2ZM422.804 47V2.2H463.178V14.04H437.578V19.7467H462.218V29.4533H437.578V35.16H463.178V47H422.804ZM488.263 48.4933C472.796 48.44 465.489 43.64 465.863 32.0133H479.142C479.303 35.0533 481.863 36.92 488.263 36.9733C493.916 37.0267 496.529 35.4267 496.529 33.3467C496.529 31.9067 495.729 30.4133 491.356 29.7733L485.596 28.8667C477.116 27.48 466.929 26.4667 466.929 15C466.929 6.14667 474.129 0.706665 488.369 0.706665C501.222 0.706665 510.183 4.28 509.916 17.08H496.743C496.209 14.0933 493.703 12.2267 488.049 12.2267C483.142 12.2267 481.116 13.72 481.116 15.7467C481.116 17.0267 481.916 18.5733 485.329 19.1067L490.076 19.9067C498.983 21.4 511.196 21.6667 511.196 33.9333C511.196 43.6933 503.623 48.5467 488.263 48.4933ZM48.5867 66.2V78.52H32.48V111H17.7067V78.52H1.6V66.2H48.5867ZM84.2142 66.2H98.9875V111H84.2142V94.7867H66.8275V111H52.0542V66.2H66.8275V82.4133H84.2142V66.2ZM139.542 111L137.568 105.08H118.368L116.395 111H101.142L117.622 66.2H138.315L154.795 111H139.542ZM121.995 94.1467H133.942L129.248 80.0667H126.688L121.995 94.1467ZM194.587 66.2V78.52H178.48V111H163.707V78.52H147.6V66.2H194.587ZM211.929 111V66.2H230.542L237.849 91.7467H238.916L246.222 66.2H264.836V111H250.756V91.16H249.583L243.876 111H232.889L227.183 91.16H226.009V111H211.929ZM305.354 111L303.381 105.08H284.181L282.208 111H266.954L283.434 66.2H304.128L320.608 111H305.354ZM287.808 94.1467H299.754L295.061 80.0667H292.501L287.808 94.1467ZM360.399 66.2V78.52H344.292V111H329.519V78.52H313.413V66.2H360.399ZM385.865 112.493C370.772 112.493 360.692 102.947 360.692 88.6C360.692 74.2533 370.772 64.7067 385.865 64.7067C396.798 64.7067 407.998 69.5067 409.492 84.6533H395.412C394.185 79.7467 390.718 77.4533 385.865 77.4533C379.998 77.4533 375.358 81.8267 375.358 88.6C375.358 95.3733 379.998 99.7467 385.865 99.7467C390.718 99.7467 394.185 97.4533 395.412 92.44H409.492C407.998 107.693 396.905 112.493 385.865 112.493ZM444.589 66.2H459.363V111H444.589V94.7867H427.203V111H412.429V66.2H427.203V82.4133H444.589V66.2ZM463.117 111V66.2H503.49V78.04H477.89V83.7467H502.53V93.4533H477.89V99.16H503.49V111H463.117ZM528.575 112.493C513.108 112.44 505.802 107.64 506.175 96.0133H519.455C519.615 99.0533 522.175 100.92 528.575 100.973C534.228 101.027 536.842 99.4267 536.842 97.3467C536.842 95.9067 536.042 94.4133 531.668 93.7733L525.908 92.8667C517.428 91.48 507.242 90.4667 507.242 79C507.242 70.1467 514.442 64.7067 528.682 64.7067C541.535 64.7067 550.495 68.28 550.228 81.08H537.055C536.522 78.0933 534.015 76.2267 528.362 76.2267C523.455 76.2267 521.428 77.72 521.428 79.7467C521.428 81.0267 522.228 82.5733 525.642 83.1067L530.388 83.9067C539.295 85.4 551.508 85.6667 551.508 97.9333C551.508 107.693 543.935 112.547 528.575 112.493ZM51.4133 130.2L33.0667 161.08V175H18.2933V161.027L0 130.2H15.52L25.12 147.053H26.2933L35.8933 130.2H51.4133ZM73.0783 176.493C57.665 176.493 47.6917 166.947 47.6917 152.6C47.6917 138.253 57.665 128.707 73.0783 128.707C88.4917 128.707 98.465 138.253 98.465 152.6C98.465 166.947 88.4917 176.493 73.0783 176.493ZM73.0783 163.747C78.945 163.747 83.7983 159.693 83.7983 152.6C83.7983 145.507 78.945 141.453 73.0783 141.453C67.2117 141.453 62.3583 145.507 62.3583 152.6C62.3583 159.693 67.2117 163.747 73.0783 163.747ZM124.629 176.493C109.216 176.493 101.429 169.933 101.429 155.48V130.2H116.309V155.107C116.309 160.653 118.763 164.12 124.629 164.12C130.496 164.12 133.056 160.653 133.056 155.107V130.2H147.829V155.373C147.829 169.933 140.042 176.493 124.629 176.493ZM198.114 175H183.608L177.528 163.427H166.328V175H151.554V130.2H177.208C189.634 130.2 196.621 135.533 196.621 147.32C196.621 153.347 193.901 157.613 190.114 160.28L198.114 175ZM166.328 142.467V152.387H176.194C179.928 152.387 181.847 150.573 181.847 147.427C181.847 144.28 179.928 142.467 176.194 142.467H166.328ZM236.263 176.493C220.796 176.44 213.489 171.64 213.863 160.013H227.142C227.303 163.053 229.863 164.92 236.263 164.973C241.916 165.027 244.529 163.427 244.529 161.347C244.529 159.907 243.729 158.413 239.356 157.773L233.596 156.867C225.116 155.48 214.929 154.467 214.929 143C214.929 134.147 222.129 128.707 236.369 128.707C249.222 128.707 258.183 132.28 257.916 145.08H244.743C244.209 142.093 241.703 140.227 236.049 140.227C231.142 140.227 229.116 141.72 229.116 143.747C229.116 145.027 229.916 146.573 233.329 147.107L238.076 147.907C246.983 149.4 259.196 149.667 259.196 161.933C259.196 171.693 251.623 176.547 236.263 176.493ZM307.087 130.2V142.52H290.98V175H276.207V142.52H260.1V130.2H307.087ZM359.538 130.2L341.192 161.08V175H326.418V161.027L308.125 130.2H323.645L333.245 147.053H334.418L344.018 130.2H359.538ZM361.429 175V130.2H376.203V162.68H400.096V175H361.429ZM403.804 175V130.2H444.178V142.04H418.578V147.747H443.218V157.453H418.578V163.16H444.178V175H403.804Z" fill="black"/>
</svg>
