<svg version="1.1" id="Layer_1" xmlns="http://www.w3.org/2000/svg" xmlns:xlink="http://www.w3.org/1999/xlink" x="0px" y="0px"
	 width="100%" viewBox="0 0 1103 107" enable-background="new 0 0 1103 107" xml:space="preserve">
<path fill="#FDFDFD" opacity="1.000000" stroke="none" 
	d="
M1054.000000,108.000000 
	C704.166687,108.000000 354.833344,107.992973 5.500027,108.093063 
	C1.750909,108.094139 0.881826,107.252159 0.901217,103.499489 
	C1.071728,70.500374 1.049862,37.499798 0.915448,4.500344 
	C0.903293,1.516315 1.518429,0.918918 4.500019,0.919612 
	C369.833344,1.004628 735.166687,1.004628 1100.500000,0.919612 
	C1103.481567,0.918918 1104.096558,1.516345 1104.084595,4.500340 
	C1103.950684,37.833134 1103.950684,71.166862 1104.084473,104.499657 
	C1104.096558,107.483650 1103.487915,108.124931 1100.498901,108.087914 
	C1085.167847,107.898003 1069.833374,108.000000 1054.000000,108.000000 
z"/>
<path fill="#020202" opacity="1.000000" stroke="none" 
	d="
M257.994293,23.930676 
	C270.993774,23.930676 270.990479,23.931616 274.375092,35.745987 
	C276.249451,42.288738 278.121948,48.832104 280.030914,55.364796 
	C280.429291,56.728085 280.418365,58.334110 282.538605,59.572876 
	C284.676575,52.315601 286.738281,45.275887 288.826385,38.244011 
	C290.193268,33.640999 290.280609,27.556635 293.341309,24.854662 
	C296.684357,21.903463 302.868866,24.038292 307.806854,23.975237 
	C318.927185,23.833233 318.928436,23.930676 318.928436,34.898487 
	C318.928436,50.565090 318.813385,66.233185 319.016357,81.897163 
	C319.062134,85.430283 318.102020,86.491234 314.610962,86.239594 
	C309.646820,85.881744 302.935120,87.944595 300.113251,85.436623 
	C296.879059,82.562218 299.306915,75.733711 299.102173,70.629433 
	C298.947571,66.775261 299.071564,62.909920 298.556824,59.002693 
	C296.093445,61.440586 295.955566,64.626205 295.000854,67.472717 
	C294.157593,69.986870 293.554871,72.581635 292.844208,75.140327 
	C289.706940,86.435410 289.706909,86.288330 277.809601,86.269920 
	C274.796753,86.265259 273.809570,85.105782 273.124603,82.562408 
	C271.182281,75.350609 269.061707,68.186935 267.044708,60.994965 
	C266.819305,60.191269 266.743469,59.368317 265.732727,59.041561 
	C264.052551,59.448227 264.743347,60.880573 264.733917,61.857178 
	C264.667877,68.689850 264.532471,75.529297 264.772430,82.354156 
	C264.883392,85.509712 263.851959,86.397835 260.816315,86.228676 
	C256.496429,85.987953 252.150009,86.070312 247.821121,86.208527 
	C245.708694,86.275978 244.944366,85.703117 244.953995,83.455284 
	C245.035522,64.455711 245.023712,45.455566 244.965805,26.455816 
	C244.959915,24.525946 245.524216,23.815413 247.499115,23.895023 
	C250.827042,24.029177 254.164337,23.931086 257.994293,23.930676 
z"/>
<path fill="#030303" opacity="1.000000" stroke="none" 
	d="
M383.465332,52.331680 
	C393.783630,51.937088 403.775757,51.984230 413.762329,51.771500 
	C416.582428,51.711422 417.011963,52.820900 416.979126,55.272320 
	C416.856384,64.431419 416.799011,73.596077 417.004150,82.752213 
	C417.072083,85.783371 415.938965,86.243652 413.271545,86.234833 
	C406.168976,86.211327 406.168549,86.337807 405.108459,78.891335 
	C398.463928,85.770729 390.543365,88.414619 381.414093,88.215683 
	C362.599609,87.805664 349.216980,74.776398 348.507538,55.857552 
	C347.828613,37.751301 360.375946,23.712481 378.807129,22.062437 
	C387.940125,21.244804 396.753693,22.274096 404.725403,27.280027 
	C410.323639,30.795523 413.929535,35.839851 415.812866,42.136192 
	C416.501282,44.437717 416.266388,45.897636 413.169128,45.758190 
	C408.348694,45.541153 403.509918,45.634899 398.681885,45.736752 
	C397.013275,45.771954 396.078888,45.084614 394.949341,43.911255 
	C389.579071,38.332489 380.098541,38.045376 374.114441,43.090172 
	C368.258850,48.026623 367.192017,57.939678 371.819275,64.416428 
	C376.095917,70.402328 385.578125,72.453842 391.971344,68.673256 
	C393.234894,67.926071 394.285492,66.789307 395.351013,65.747055 
	C396.073334,65.040512 396.696259,64.007668 396.108490,63.113216 
	C395.792450,62.632339 394.662079,62.650356 393.886200,62.521118 
	C393.399811,62.440102 392.889221,62.508976 392.389648,62.501675 
	C382.931488,62.363503 382.931488,62.363228 383.465332,52.331680 
z"/>
<path fill="#030303" opacity="1.000000" stroke="none" 
	d="
M81.754471,61.105610 
	C79.885742,42.389484 87.234711,29.374876 102.359749,24.048103 
	C119.181549,18.123760 138.319717,23.366060 146.705933,36.257435 
	C157.761780,53.252560 152.890747,85.523666 120.794189,88.045624 
	C115.468018,88.464119 110.116470,88.368149 104.939049,86.843559 
	C92.151962,83.078156 84.155869,74.875732 81.754471,61.105610 
z"/>
<path fill="#030303" opacity="1.000000" stroke="none" 
	d="
M810.383667,87.972961 
	C784.880920,83.077782 773.272888,60.217014 784.823975,38.403599 
	C785.822815,36.517334 787.026245,34.662338 788.467346,33.099678 
	C799.146851,21.519691 812.677185,19.953583 827.001465,23.159872 
	C839.348511,25.923582 847.361267,33.801517 850.460571,46.329838 
	C855.934204,68.455948 841.605103,87.428650 818.819824,88.128860 
	C816.162964,88.210510 813.498901,88.054642 810.383667,87.972961 
z"/>
<path fill="#060606" opacity="1.000000" stroke="none" 
	d="
M422.289886,32.083649 
	C422.290009,23.922579 422.290009,23.922571 429.757477,23.922548 
	C432.756775,23.922539 435.785706,24.187368 438.747833,23.855585 
	C442.454254,23.440435 443.207825,24.976692 443.009155,28.336082 
	C442.724396,33.151424 443.016937,37.998066 442.901886,42.827507 
	C442.846832,45.139072 443.089569,46.482681 446.034943,46.362267 
	C452.023499,46.117447 458.032532,46.171124 464.026031,46.345463 
	C466.514801,46.417854 467.103149,45.536156 467.040344,43.213409 
	C466.891724,37.718746 467.082550,32.215130 466.948212,26.719730 
	C466.895752,24.575329 467.475403,23.802055 469.721924,23.873514 
	C474.715668,24.032364 479.721802,24.039425 484.715149,23.874443 
	C487.219208,23.791708 487.759918,24.790373 487.750885,27.085184 
	C487.677338,45.747116 487.672333,64.409630 487.755310,83.071472 
	C487.765991,85.473778 487.024445,86.289558 484.621918,86.219917 
	C479.627319,86.075142 474.621277,86.053879 469.628632,86.229599 
	C467.243683,86.313538 466.921204,85.276520 466.958038,83.277351 
	C467.059326,77.780540 466.890930,72.277847 467.040649,66.783241 
	C467.104065,64.455429 466.506714,63.582710 464.022675,63.654694 
	C458.029114,63.828381 452.020081,63.883415 446.031616,63.637474 
	C443.079773,63.516254 442.855011,64.870453 442.902130,67.175743 
	C443.011017,72.505577 442.815155,77.843140 442.990082,83.169449 
	C443.071136,85.636955 442.213470,86.313782 439.858673,86.218544 
	C434.211639,85.990181 426.984589,88.047157 423.354736,85.288147 
	C419.872375,82.641243 422.415314,74.998665 422.342133,69.561241 
	C422.176208,57.233044 422.289886,44.901085 422.289886,32.083649 
z"/>
<path fill="#040404" opacity="1.000000" stroke="none" 
	d="
M731.259033,65.299904 
	C736.173218,72.304214 743.021057,72.784546 750.295349,71.985451 
	C751.598206,71.842323 752.894592,71.477829 754.146423,71.069756 
	C756.010132,70.462204 757.387878,69.314674 757.453430,67.175262 
	C757.529480,64.692955 755.782166,63.493000 753.793640,63.079781 
	C748.262695,61.930435 742.665161,61.105923 737.113037,60.052166 
	C734.344727,59.526760 731.589783,58.881760 728.878601,58.114624 
	C721.801147,56.112011 717.367310,51.650562 716.544861,44.147839 
	C715.642273,35.914837 718.674683,29.298754 726.001953,25.977598 
	C739.201782,19.994726 752.835815,20.010166 766.172302,25.538639 
	C772.968811,28.356064 775.713074,34.391106 776.100830,41.592712 
	C776.227356,43.942093 775.517456,44.898468 773.041687,44.749775 
	C769.887512,44.560337 766.711609,44.638538 763.548340,44.723293 
	C760.543579,44.803806 758.211792,44.772514 756.268188,41.370010 
	C753.859192,37.152863 741.453796,36.524632 737.752686,39.737625 
	C736.710754,40.642117 735.865051,41.758080 736.154480,43.197735 
	C736.603821,45.432610 738.316589,46.568928 740.366211,46.950840 
	C746.090271,48.017437 751.854065,48.869972 757.580994,49.922329 
	C760.349487,50.431026 763.131592,51.011349 765.801392,51.883850 
	C773.704529,54.466618 777.605652,59.244164 778.001892,66.501183 
	C778.465942,74.997200 775.078796,81.736557 767.531982,84.604515 
	C753.676697,89.869766 739.534302,89.788330 725.563171,84.752586 
	C721.880493,83.425186 718.965393,80.708954 717.211243,77.188835 
	C715.499695,73.754234 713.625977,69.588577 715.456177,66.242271 
	C716.797607,63.789791 720.951416,65.571999 723.837341,65.334282 
	C726.154114,65.143448 728.499268,65.296135 731.259033,65.299904 
z"/>
<path fill="#030303" opacity="1.000000" stroke="none" 
	d="
M1085.369385,70.500664 
	C1085.655273,74.889290 1085.527954,78.895561 1085.750854,82.882240 
	C1085.903320,85.606026 1084.820190,86.228264 1082.295288,86.214485 
	C1065.801758,86.124512 1049.307007,86.114769 1032.813721,86.222885 
	C1030.204590,86.239983 1029.436279,85.493416 1029.450928,82.869621 
	C1029.555054,64.210274 1029.555176,45.549797 1029.449829,26.890461 
	C1029.435547,24.366535 1030.308472,23.873232 1032.610596,23.884930 
	C1049.270752,23.969589 1065.931885,23.969200 1082.592041,23.886580 
	C1084.946167,23.874905 1085.651489,24.543463 1085.768799,26.970861 
	C1086.413574,40.306416 1086.489868,40.302689 1073.319214,40.302746 
	C1066.654907,40.302773 1059.980469,40.525333 1053.330444,40.217400 
	C1049.510132,40.040501 1050.137329,42.273205 1049.947388,44.595474 
	C1049.721313,47.357887 1050.547729,48.298141 1053.459106,48.236210 
	C1062.451782,48.044910 1071.454224,48.299152 1080.446167,48.093822 
	C1083.545166,48.023060 1084.364868,48.948742 1084.381592,52.008709 
	C1084.435425,61.834232 1084.569092,61.833481 1074.964111,61.833508 
	C1067.800049,61.833530 1060.625244,62.064571 1053.476196,61.736721 
	C1049.874023,61.571522 1050.014160,63.329700 1049.926636,65.885139 
	C1049.829346,68.725548 1050.312134,69.977570 1053.651978,69.927002 
	C1064.133057,69.768311 1074.620483,70.018280 1085.369385,70.500664 
z"/>
<path fill="#030303" opacity="1.000000" stroke="none" 
	d="
M176.929703,38.007145 
	C176.937012,45.668396 176.848846,52.833141 176.978333,59.993942 
	C177.109100,67.225243 181.064133,71.005714 188.231094,71.045036 
	C195.554382,71.085213 199.875244,67.097130 199.964920,59.819695 
	C200.094223,49.326508 200.128250,38.827995 199.922104,28.337280 
	C199.857697,25.059839 200.356674,23.433542 204.118057,23.873346 
	C209.505722,24.503304 216.778412,21.545689 219.839661,25.041098 
	C222.514633,28.095455 220.671799,35.176266 220.680908,40.478470 
	C220.693207,47.639145 220.764420,54.808430 220.460068,61.959110 
	C219.842194,76.475746 212.780151,84.680199 198.516495,87.362778 
	C190.421066,88.885300 182.244522,88.728516 174.260574,86.559929 
	C162.878632,83.468384 156.468201,74.816582 156.082458,61.494690 
	C155.749908,50.009998 156.059341,38.507801 155.952255,27.014578 
	C155.930908,24.723883 156.415787,23.773855 158.936615,23.872259 
	C163.926529,24.067045 168.933182,24.045044 173.925293,23.880716 
	C176.366577,23.800352 177.096985,24.648251 176.975571,27.016617 
	C176.796707,30.505661 176.929596,34.010689 176.929703,38.007145 
z"/>
<path fill="#020202" opacity="1.000000" stroke="none" 
	d="
M589.611084,59.572453 
	C593.651855,48.636215 597.598999,38.079082 601.340393,27.449541 
	C602.222961,24.942087 603.209167,23.736755 606.171204,23.842382 
	C613.650391,24.109093 621.145569,23.946558 628.634155,23.919067 
	C630.336060,23.912819 631.575562,23.920446 632.356628,26.082249 
	C639.447083,45.706951 646.714172,65.267822 653.908508,84.855133 
	C654.008789,85.128265 653.836914,85.501358 653.745667,86.166168 
	C647.657776,86.166168 641.519592,86.053169 635.388916,86.218582 
	C632.721558,86.290558 632.329468,84.469620 632.111450,82.758774 
	C631.561340,78.440964 629.051697,77.705467 625.186768,77.917236 
	C619.379639,78.235428 613.536499,78.152840 607.720032,77.935829 
	C604.796814,77.826767 602.894287,78.444839 602.528625,81.629494 
	C602.071045,85.615822 599.720581,86.512833 595.968933,86.255394 
	C590.843811,85.903694 585.676331,86.167595 579.865723,86.167595 
	C583.154968,77.154030 586.298584,68.539558 589.611084,59.572453 
z"/>
<path fill="#010101" opacity="1.000000" stroke="none" 
	d="
M997.281372,31.268030 
	C1001.086548,25.230331 1006.056396,22.866026 1012.942261,23.827997 
	C1017.025757,24.398476 1021.254089,23.932413 1025.886597,23.932413 
	C1023.754333,28.231277 1020.169006,30.939690 1017.329163,34.209156 
	C1013.184448,38.980915 1008.927795,43.670692 1004.477478,48.155956 
	C1001.858398,50.795597 1002.054932,52.708649 1004.313354,55.574570 
	C1012.014771,65.347816 1019.406494,75.365143 1027.552002,86.129112 
	C1020.374451,86.129112 1014.014404,86.137184 1007.654297,86.124077 
	C1005.802979,86.120262 1005.312805,84.449478 1004.454224,83.318649 
	C1000.129517,77.621994 995.776245,71.943130 991.618835,66.125175 
	C989.866638,63.673138 988.816589,63.849464 986.670288,65.873268 
	C981.836426,70.431305 978.568909,75.367340 979.987915,82.366058 
	C980.596985,85.370193 979.449158,86.455635 976.268616,86.241699 
	C971.791199,85.940544 967.271667,86.017059 962.783264,86.220978 
	C960.113770,86.342262 959.443787,85.405464 959.457520,82.833389 
	C959.556213,64.343506 959.580017,45.852329 959.439575,27.362989 
	C959.416870,24.378136 960.466736,23.756981 963.144104,23.881519 
	C967.299622,24.074818 971.505737,24.267944 975.625305,23.837524 
	C979.697266,23.412071 980.206787,25.139048 980.072754,28.589838 
	C979.817200,35.170124 979.998657,41.767380 979.998657,49.973389 
	C986.382812,43.074657 991.718811,37.308552 997.281372,31.268030 
z"/>
<path fill="#030303" opacity="1.000000" stroke="none" 
	d="
M54.266144,42.325394 
	C54.813087,41.442036 55.194790,40.895370 55.532219,40.322620 
	C58.716805,34.917141 60.320740,26.961439 65.366219,24.701361 
	C71.037033,22.161171 78.721870,24.117153 86.219238,24.117153 
	C80.618996,33.608486 75.180557,42.825882 69.740654,52.042400 
	C69.656334,52.185265 69.559479,52.321697 69.458961,52.453903 
	C62.785641,61.231522 59.294693,70.920326 61.006363,82.085587 
	C61.486038,85.214523 60.471516,86.495041 57.052422,86.248550 
	C52.579128,85.926079 48.059101,86.029610 43.570759,86.221214 
	C40.862156,86.336845 39.892181,85.279716 40.306175,82.754295 
	C42.298313,70.601875 37.580662,60.553322 31.009153,50.769970 
	C25.397532,42.415638 20.625992,33.497021 14.970019,23.963612 
	C22.315725,23.963612 28.858866,23.965046 35.402008,23.962656 
	C37.157272,23.962017 37.395199,25.552429 38.008572,26.603992 
	C41.101303,31.906172 43.990150,37.329765 47.177525,42.572762 
	C48.158916,44.187080 48.422688,47.037010 50.605999,47.049343 
	C52.784042,47.061646 52.999676,44.230774 54.266144,42.325394 
z"/>
<path fill="#000000" opacity="1.000000" stroke="none" 
	d="
M515.004272,79.932068 
	C515.004272,67.796295 514.914307,56.150242 515.069397,44.507458 
	C515.106812,41.701397 514.357849,40.809303 511.510925,40.930645 
	C506.197235,41.157127 500.862946,40.874027 495.545410,41.050194 
	C493.134918,41.130054 492.343262,40.432228 492.466309,37.992035 
	C492.692230,33.512341 490.926544,27.679752 493.130188,24.896297 
	C495.441132,21.977272 501.538940,24.014166 505.969391,23.981710 
	C521.938599,23.864735 537.909851,24.009104 553.878784,23.871433 
	C556.929321,23.845137 558.464478,24.330910 558.050537,27.833126 
	C557.549316,32.073761 559.816345,37.740292 557.167786,40.232330 
	C554.924744,42.342793 549.318298,40.958397 545.199585,40.979618 
	C535.485291,41.029667 535.485168,40.995663 535.485107,50.860519 
	C535.485046,61.340885 535.380249,71.822960 535.551453,82.300529 
	C535.599854,85.264160 534.955872,86.489258 531.749634,86.229515 
	C528.113708,85.934967 524.391663,85.805672 520.786499,86.249290 
	C515.976074,86.841217 514.032166,85.248329 515.004272,79.932068 
z"/>
<path fill="#010101" opacity="1.000000" stroke="none" 
	d="
M902.124878,69.073372 
	C910.102661,69.073395 917.597961,69.191727 925.086243,69.012505 
	C927.898682,68.945198 928.707153,69.774139 928.769958,72.622253 
	C929.068787,86.167618 929.160278,86.165611 915.575073,86.165588 
	C903.254028,86.165573 890.932068,86.089149 878.612549,86.225311 
	C875.913452,86.255142 874.907349,85.726707 874.930176,82.750275 
	C875.072021,64.269791 875.037048,45.787518 874.958191,27.306278 
	C874.947937,24.900486 875.300781,23.705936 878.148010,23.863293 
	C882.795776,24.120163 887.479248,24.127323 892.126282,23.864143 
	C895.214233,23.689262 895.567871,25.033991 895.542053,27.631828 
	C895.424377,39.452206 895.817017,51.287556 895.341858,63.089970 
	C895.130127,68.350632 896.807861,69.942856 902.124878,69.073372 
z"/>
<path fill="#010101" opacity="1.000000" stroke="none" 
	d="
M657.512634,42.000141 
	C657.513184,36.672581 657.623169,31.841322 657.467041,27.018673 
	C657.391663,24.689230 657.988281,23.508688 660.488647,23.931339 
	C660.650513,23.958694 660.820984,23.932898 660.987488,23.934917 
	C666.461731,24.001335 673.635132,21.995718 676.941467,24.706570 
	C680.379272,27.525177 677.831970,34.985821 677.949524,40.409584 
	C678.129883,48.729324 678.167480,57.061127 677.910706,65.376846 
	C677.811584,68.588127 678.841125,69.215614 681.817139,69.146561 
	C690.469116,68.945839 699.130615,69.178566 707.784119,69.013702 
	C710.430359,68.963295 711.319763,69.735291 711.102966,72.362068 
	C710.736511,76.801163 712.874939,82.501740 710.286377,85.364388 
	C707.879333,88.026413 702.128357,86.088112 697.856567,86.126495 
	C686.037903,86.232658 674.214966,86.020409 662.399719,86.246834 
	C658.663391,86.318443 657.308228,85.557106 657.402527,81.452164 
	C657.700867,68.474121 657.512634,55.484890 657.512634,42.000141 
z"/>
<path fill="#000000" opacity="1.000000" stroke="none" 
	d="
M340.976013,23.935917 
	C343.341888,23.762577 344.546417,23.983843 344.534027,26.478020 
	C344.439606,45.442101 344.453491,64.406975 344.522430,83.371277 
	C344.530304,85.542412 343.835480,86.253792 341.680542,86.199875 
	C336.693024,86.075096 331.696625,86.050087 326.711151,86.210777 
	C324.442169,86.283913 323.955750,85.450035 323.963623,83.345314 
	C324.033966,64.547371 324.045319,45.748871 323.953583,26.951118 
	C323.941925,24.570185 324.581268,23.783514 327.002563,23.883186 
	C331.486572,24.067772 335.983612,23.935858 340.976013,23.935917 
z"/>
<path fill="#000000" opacity="1.000000" stroke="none" 
	d="
M935.142578,86.117508 
	C933.395264,85.029045 933.965454,83.592606 933.962769,82.339035 
	C933.923523,64.191483 934.030334,46.042885 933.850769,27.897020 
	C933.817505,24.536579 934.822510,23.676954 938.002991,23.874243 
	C943.292725,24.202374 950.244080,22.150635 953.456848,24.794214 
	C956.767151,27.517994 954.388855,34.737122 954.439331,39.980354 
	C954.573914,53.964394 954.350220,67.952774 954.577148,81.934425 
	C954.635864,85.553162 953.510864,86.437202 950.111816,86.234001 
	C945.300598,85.946365 940.459595,86.156807 935.142578,86.117508 
z"/>
<path fill="#FBFBFB" opacity="1.000000" stroke="none" 
	d="
M105.790207,66.189499 
	C100.907768,60.139404 100.524300,53.735287 103.442749,47.256710 
	C105.859993,41.890774 110.686478,39.736752 116.375900,39.540066 
	C122.648849,39.323200 127.777290,42.621941 130.161118,48.220299 
	C132.856445,54.550217 131.472458,62.459591 126.932617,66.670898 
	C122.580650,70.707924 115.305534,71.723236 109.729248,68.959724 
	C108.414345,68.308075 107.276306,67.299545 105.790207,66.189499 
z"/>
<path fill="#FAFAFA" opacity="1.000000" stroke="none" 
	d="
M804.139404,45.282501 
	C809.748169,39.572582 816.176147,38.107906 822.376099,40.852768 
	C828.224792,43.442112 831.181519,48.534821 831.003357,55.712330 
	C830.777344,64.817261 824.225159,70.978371 815.272522,70.504333 
	C806.534119,70.041641 800.455322,62.942440 801.184998,53.993809 
	C801.430054,50.988888 802.174194,48.118683 804.139404,45.282501 
z"/>
<path fill="#F5F5F5" opacity="1.000000" stroke="none" 
	d="
M611.275757,55.197411 
	C612.476990,51.686901 613.558960,48.555065 614.602417,45.410465 
	C615.030029,44.121792 615.359863,43.012623 617.181763,42.998493 
	C619.070129,42.983856 619.329651,44.283302 619.739197,45.478149 
	C621.406677,50.342567 622.939758,55.253811 624.656860,60.100166 
	C625.510193,62.508801 624.544250,62.940289 622.386414,62.887489 
	C618.072815,62.781944 613.754700,62.856178 609.339905,62.856178 
	C609.127075,60.071571 610.741760,57.967518 611.275757,55.197411 
z"/>
</svg>